<svg width="19" height="18" viewBox="0 0 19 18" fill="none" xmlns="http://www.w3.org/2000/svg">
<path d="M9.5 11.25C10.8117 11.25 11.875 10.2426 11.875 9C11.875 7.75736 10.8117 6.75 9.5 6.75C8.18832 6.75 7.125 7.75736 7.125 9C7.125 10.2426 8.18832 11.25 9.5 11.25Z" fill="black"/>
<path d="M14.6515 4.96336C13.0291 3.90937 11.2928 3.375 9.49109 3.375C7.86979 3.375 6.2893 3.83203 4.79342 4.72781C3.28492 5.63309 1.80611 7.27734 0.59375 9C1.57418 10.5469 2.91531 12.1373 4.31211 13.0493C5.91449 14.0948 7.65678 14.625 9.49109 14.625C11.3095 14.625 13.048 14.0952 14.6604 13.0504C16.0799 12.1289 17.4306 10.5405 18.4063 9C17.4273 7.47316 16.0721 5.88656 14.6515 4.96336ZM9.5 12.375C8.7954 12.375 8.10663 12.1771 7.52078 11.8062C6.93493 11.4354 6.47832 10.9083 6.20868 10.2916C5.93904 9.67486 5.86849 8.99626 6.00595 8.34157C6.14341 7.68688 6.48271 7.08552 6.98093 6.61351C7.47916 6.14151 8.11393 5.82008 8.80499 5.68985C9.49605 5.55962 10.2123 5.62646 10.8633 5.88191C11.5143 6.13735 12.0707 6.56993 12.4621 7.12495C12.8536 7.67997 13.0625 8.33249 13.0625 9C13.0614 9.89479 12.6857 10.7526 12.0179 11.3854C11.35 12.0181 10.4445 12.374 9.5 12.375Z" fill="black"/>
</svg>
